<svg xmlns="http://www.w3.org/2000/svg" width="200" height="29"><path fill="#FFF" d="M84 29h116V0H84z"/><path d="M0 29h84V0H0z"/><path fill="#FFF" d="M20.16 6.89h2.95V4h-2.95v2.89zm-10.48 4.8c.52-.59 1.18-.9 2.08-.9 1.96 0 2.93 1.13 2.93 3.35 0 1.2-.27 2.14-.87 2.73-.47.45-1.08.68-1.91.68-.9 0-1.64-.36-2.15-1-.5-.63-.8-1.49-.8-2.5 0-1.02.24-1.8.72-2.37zm28.36-.79V8.63H35.5v-.2c0-1.3.73-1.96 2.26-1.96l.58.04V4.04C38.08 4 37.76 4 37.38 4c-1.22 0-2.23.24-3.06.7-1.16.72-1.77 1.92-1.77 3.59v.34h-3.87v-.2c0-1.3.73-1.96 2.28-1.96l.63.04V4.04C31.32 4 30.96 4 30.57 4c-1.22 0-2.18.24-3 .7-1.23.72-1.81 1.92-1.81 3.59v9.48H23.6c-.35 0-.5-.15-.5-.49v-7.1c0-.55-.13-.93-.4-1.2-.24-.22-.61-.35-1.13-.35h-5.4c-.43 0-.74.13-.99.35a1 1 0 0 0-.27.73c-.03.12-.03.2 0 .26h-.06a3.33 3.33 0 0 0-.78-.81 4.8 4.8 0 0 0-2.82-.8c-1.66 0-2.95.58-3.9 1.7A6.3 6.3 0 0 0 6 14.1a6.57 6.57 0 0 0 1.42 4.14 4.79 4.79 0 0 0 3.9 1.73c1.44 0 2.55-.5 3.26-1.47h.02v1.14c0 1-.3 1.72-.98 2.23-.59.42-1.36.62-2.33.62-.75 0-1.53-.13-2.33-.4l-.93-.38-.89 2.3c1.29.63 2.67.99 4.18.99 1.7 0 3.1-.44 4.24-1.25a4.99 4.99 0 0 0 1.95-4.24v-7.99c0-.27.16-.42.5-.42h1.69c.35 0 .5.15.5.48v7.08c0 .54.1.92.36 1.16.22.27.61.39 1.16.39h6.96v-9.3h3.87v9.3h2.96v-9.3h2.53zm4.07.78c.5-.58 1.17-.85 2.02-.85 1.95 0 2.95 1.13 2.95 3.36 0 1.18-.28 2.1-.83 2.68-.51.48-1.12.72-1.91.72-.95 0-1.68-.37-2.2-1.04a3.96 3.96 0 0 1-.76-2.5c0-1.02.27-1.8.73-2.37zm5.2-1.97v.32h-.05a2.62 2.62 0 0 0-.8-.82 4.42 4.42 0 0 0-2.82-.85c-1.64 0-2.93.58-3.89 1.7a6.14 6.14 0 0 0-1.33 4.08c0 1.67.48 3.01 1.39 4.1a4.82 4.82 0 0 0 3.9 1.73c1.46 0 2.54-.5 3.3-1.47h.01L47 19.67c0 .97-.3 1.7-.98 2.2-.6.42-1.34.64-2.31.64-.76 0-1.53-.15-2.34-.42l-.94-.38-.9 2.3c1.3.63 2.65.99 4.18.99 1.71 0 3.13-.44 4.27-1.25a4.92 4.92 0 0 0 1.95-4.2v-7.97c0-.33.17-.48.5-.48h.92V8.63H48.6c-.42 0-.73.13-.96.35a.97.97 0 0 0-.33.73zm11.22 5.21h.52v.3c0 .73-.25 1.44-.76 2a2.37 2.37 0 0 1-1.9 1.02c-.58 0-1.02-.15-1.34-.42-.27-.3-.44-.67-.44-1.05 0-1.23 1.3-1.85 3.92-1.85zM77 4.08a7.27 7.27 0 0 0-.97-.08c-1.22 0-2.26.23-3.06.73-1.18.72-1.77 1.94-1.77 3.6v.3h-3.87v-.2c0-1.3.74-1.96 2.29-1.96l.57.08V4.07A6.8 6.8 0 0 0 69.17 4c-1.2 0-2.18.23-3 .73-1.2.72-1.76 1.89-1.76 3.56v9.53h-1.97c-.33 0-.5-.16-.5-.5v-4.33c0-3.09-1.68-4.63-5.08-4.63-1.01 0-1.88.15-2.6.44-1.12.36-1.72 1.03-1.72 1.96v1.21h2.72v-.61c0-.26.17-.5.6-.6.27-.13.6-.17.96-.17.77 0 1.32.17 1.68.51.34.35.5.97.5 1.77v.09h-.37c-1.66 0-3.08.2-4.24.61-1.85.66-2.73 1.75-2.73 3.3 0 1.14.37 2.03 1.2 2.67.74.63 1.7.93 2.82.93 1.1 0 2-.34 2.74-1 .35-.34.63-.68.79-1.05h.06l-.04.51c0 .4.13.7.35.93.28.27.65.38 1.14.38h6.61v-9.28h3.87v9.28h2.9v-9.28h2.6V8.63h-2.6v-.2c0-1.3.75-1.96 2.28-1.96l.62.07V4.08z"/><path d="M101.67 19.74c0 1.9-.48 3.12-1.28 4.04a6.12 6.12 0 0 1-4.58 1.98c-3.08 0-4.88-1.8-5.4-3.62h2.4c.24.48.66.92 1.2 1.26.66.44 1.4.58 1.88.58 1.82 0 3.7-1.34 3.7-3.78v-1.12a4.26 4.26 0 0 1-3.92 2.24 5.53 5.53 0 0 1-5.62-5.72c0-3.4 2.46-5.8 5.62-5.8 1.82 0 3.32.96 3.92 2.16v-1.84h2.08v9.62zm-9.54-4.18a3.7 3.7 0 0 0 3.76 3.82c1.1 0 2.02-.42 2.68-1.1a3.9 3.9 0 0 0 1.06-2.66 4.2 4.2 0 0 0-.88-2.58 3.48 3.48 0 0 0-2.86-1.28 3.69 3.69 0 0 0-3.76 3.78v.02zM115.45 21h-2.08v-1.9c-.76 1.46-2.32 2.22-4.04 2.22-3.5 0-5.58-2.72-5.58-5.76a5.54 5.54 0 0 1 5.58-5.76c2.16 0 3.54 1.2 4.04 2.24v-1.92h2.08V21zm-9.62-5.4c.02 1.62 1.16 3.78 3.8 3.78 1.66 0 2.84-.92 3.38-2.16.24-.5.36-1.06.38-1.62a3.46 3.46 0 0 0-.32-1.62 3.63 3.63 0 0 0-3.48-2.24 3.72 3.72 0 0 0-3.76 3.84v.02zm12.36-5.48h1.96v1.54a3.76 3.76 0 0 1 3.3-1.86c1 0 2.04.3 2.8 1.16.28.28.58.86.7 1.06a4.01 4.01 0 0 1 3.66-2.22c1 0 2.12.28 2.92 1.1.96.98 1.2 2.02 1.2 4.1v6h-2.08v-5.92c0-.9-.12-1.8-.6-2.42-.38-.56-.96-.9-1.94-.9-.92 0-1.7.38-2.1 1.04-.44.68-.5 1.28-.5 2.2v6h-2.1v-6c.02-.9-.08-1.56-.44-2.16-.4-.64-1.04-1.06-2.06-1.08-.98-.02-1.7.46-2.06 1.06-.4.58-.58 1.34-.58 2.22V21h-2.08V10.12zm20.54 6.1c.1 2.2 2.02 3.32 3.66 3.32 1.46 0 2.54-.7 3.14-1.84h2.16a5.99 5.99 0 0 1-2.2 2.7c-.92.62-2 .92-3.1.92a5.69 5.69 0 0 1-5.76-5.74 5.72 5.72 0 0 1 5.74-5.78c1.56 0 2.98.58 4.02 1.6 1.28 1.3 1.82 3 1.64 4.82h-9.3zm7.24-1.62c-.1-1.44-1.54-3.06-3.6-3.02-2.12 0-3.5 1.54-3.6 3.02h7.2zm4.1-4.48h1.98v1.9a4.73 4.73 0 0 1 4.16-2.22c3.74 0 5.5 3.12 5.5 5.82 0 3.08-2.22 5.7-5.48 5.7-2.26 0-3.6-1.24-4.08-2.12v5.76h-2.08V10.12zm9.54 5.42c0-1.78-1.26-3.8-3.8-3.8a3.7 3.7 0 0 0-3.76 3.84 3.75 3.75 0 0 0 3.78 3.8c2.2 0 3.78-1.7 3.78-3.82v-.02zm4.22-9.34h2.08V21h-2.08V6.2zM179.71 21h-2.08v-1.9c-.76 1.46-2.32 2.22-4.04 2.22-3.5 0-5.58-2.72-5.58-5.76a5.54 5.54 0 0 1 5.58-5.76c2.16 0 3.54 1.2 4.04 2.24v-1.92h2.08V21zm-9.62-5.4c.02 1.62 1.16 3.78 3.8 3.78 1.66 0 2.84-.92 3.38-2.16.24-.5.36-1.06.38-1.62a3.45 3.45 0 0 0-.32-1.62 3.63 3.63 0 0 0-3.48-2.24 3.72 3.72 0 0 0-3.76 3.84v.02zm12.36-5.48h1.96v1.68c.52-1.12 1.74-2.02 3.68-2 3.48.04 4.4 2.56 4.4 4.82V21h-2.1v-5.9c0-1.96-.76-3.36-2.88-3.34-2.04.02-2.98 1.3-2.98 3.18V21h-2.08V10.12z"/></svg>