<svg id="Layer_1" xmlns="http://www.w3.org/2000/svg" viewBox="0 0 150 150"><style>.st1{fill:#fff}</style><path d="M107.6 33C107.4 17.1 92.1 6.5 76 6.5S45 17.1 44.8 33H28.1v113.1h96.1V33h-16.6z" fill="#100c08"/><path class="st1" d="M105.1 30.4c-.2-15.8-15.5-26.5-31.6-26.5s-31 10.7-31.2 26.5H25.6v113.1h96.1V30.4h-16.6z"/><path d="M100.9 34.2c-.2-14.7-12.2-26.7-27-26.7s-26.8 12-27 26.7H29.7v105.4h88.1V34.2h-16.9zM73.8 16.8c9.8 0 17.6 7.8 17.7 17.4H56c.2-9.6 8.1-17.4 17.8-17.4z" fill="#df4e1b"/><path class="st1" d="M33.7 74.9c0-.5.2-1 .5-1.4s.8-.6 1.5-.6h2.6v-5.6c0-1.5.2-2.9.7-4.3.4-1.3 1.1-2.5 2-3.5s2-1.8 3.4-2.4c1.4-.6 3-.9 4.8-.9 1.3 0 2.4.2 3.4.5s1.9.8 2.7 1.3c.8.6 1.5 1.2 2.1 2s1.1 1.6 1.5 2.4l-2.4 1.5c-.5.3-1 .4-1.4.4-.6 0-1.1-.3-1.6-.8-.3-.4-.6-.7-.9-1-.3-.3-.6-.5-1-.8-.3-.2-.7-.4-1.1-.5-.4-.1-.9-.2-1.4-.2-1.6 0-2.9.5-3.7 1.6s-1.2 2.6-1.2 4.5v5.7H54v2.4c0 .4-.2.7-.5 1.1-.3.3-.7.5-1.2.5h-8.1v4.6c0 1.1-.2 2-.6 2.8-.4.8-.9 1.6-1.6 2.3 1.2-.3 2.4-.4 3.5-.4h14v2.5c0 .3-.1.6-.2.9-.1.3-.3.6-.5.8-.2.2-.5.4-.8.6s-.7.2-1 .2H34.1v-3.7c.5-.1 1.1-.3 1.6-.5s.9-.5 1.3-.9.7-.8.9-1.3.3-1.1.3-1.7v-6.2h-4.6l.1-1.9c-.1 0 0 0 0 0zM74.8 56.2c1.6 0 3.1.2 4.4.7s2.5 1.1 3.4 2c.9.9 1.7 1.9 2.2 3.1.5 1.2.8 2.6.8 4 0 1.3-.2 2.5-.6 3.5-.4 1.1-.9 2.1-1.5 3.1s-1.4 1.9-2.2 2.9c-.8.9-1.7 1.9-2.7 2.8l-7.8 8c.8-.2 1.5-.4 2.2-.5s1.4-.2 2.1-.2H84c.6 0 1.1.2 1.5.5.4.4.6.8.6 1.4V91H62.5v-2c0-.4.1-.8.3-1.2.2-.4.4-.8.8-1.2L74 76.2c.9-.9 1.7-1.7 2.4-2.6.7-.8 1.3-1.6 1.7-2.4.5-.8.8-1.6 1.1-2.4.2-.8.4-1.7.4-2.6 0-.8-.1-1.6-.4-2.2-.2-.6-.6-1.2-1-1.6-.4-.4-1-.8-1.6-1-.6-.2-1.3-.3-2.1-.3-1.4 0-2.6.4-3.5 1.1-.9.7-1.6 1.7-1.9 2.9-.2.6-.4 1-.8 1.3-.4.3-.8.4-1.3.4-.2 0-.5 0-.8-.1l-3.1-.5c.2-1.7.7-3.1 1.4-4.4.7-1.3 1.5-2.3 2.6-3.1 1-.8 2.2-1.5 3.5-1.9 1.3-.4 2.7-.6 4.2-.6z"/><g><path class="st1" d="M110.9 59.1c0 .8-.3 1.5-.8 2.1-.5.5-1.4.8-2.7.8h-9.5l-1.2 7.2c1.6-.3 3-.5 4.3-.5 1.8 0 3.4.3 4.8.8s2.5 1.3 3.5 2.2 1.6 2.1 2.1 3.4.7 2.7.7 4.1c0 1.8-.3 3.5-1 5-.6 1.5-1.5 2.8-2.7 3.9-1.1 1.1-2.5 1.9-4.1 2.5-1.6.6-3.3.9-5.1.9-1.1 0-2.1-.1-3.1-.3-1-.2-1.9-.5-2.7-.9-.9-.4-1.6-.8-2.4-1.3-.7-.5-1.4-1-1.9-1.5l1.8-2.5c.4-.5.9-.8 1.5-.8.4 0 .8.1 1.2.4.4.3.9.5 1.4.8s1.2.6 1.9.8c.7.3 1.6.4 2.6.4 1.1 0 2-.2 2.9-.5.8-.4 1.5-.8 2.1-1.5.5-.6 1-1.4 1.2-2.2.3-.9.4-1.8.4-2.8 0-1.9-.5-3.3-1.6-4.4-1.1-1.1-2.7-1.6-4.8-1.6-1.7 0-3.4.3-5 .9L91 73.4l2.9-16.8H111v2.5h-.1z"/></g><g><path class="st1" d="M39.2 113.9c.4 0 .8 0 1.1.1s.7.2 1 .4H44v.8c0 .1 0 .2-.1.3-.1.1-.2.1-.4.2l-.8.2c.1.2.1.3.1.5v.5c0 .5-.1.9-.3 1.2-.2.4-.4.7-.8.9-.3.3-.7.5-1.1.6-.4.1-.9.2-1.4.2-.3 0-.7 0-1-.1-.3.2-.4.4-.4.6s.1.3.3.4.4.1.7.2c.3 0 .6.1.9.1h1.1c.4 0 .7.1 1.1.2.4.1.7.2.9.4.3.2.5.4.7.7.2.3.3.6.3 1.1 0 .4-.1.8-.3 1.2-.2.4-.5.7-.9 1s-.8.5-1.4.7c-.6.2-1.2.3-1.9.3s-1.3-.1-1.8-.2-.9-.3-1.3-.5-.6-.5-.8-.8-.3-.6-.3-.9c0-.4.1-.8.4-1.1.3-.3.6-.5 1.1-.7-.2-.1-.4-.3-.5-.5s-.2-.5-.2-.8c0-.1 0-.3.1-.4 0-.1.1-.3.2-.4s.2-.3.4-.4c.1-.1.3-.2.5-.3-.5-.3-.8-.6-1.1-1s-.4-.9-.4-1.5c0-.5.1-.9.3-1.2.2-.4.4-.7.8-.9s.7-.5 1.2-.6c.3-.4.8-.5 1.3-.5zm2.5 9.8c0-.2-.1-.3-.2-.4-.1-.1-.3-.2-.4-.3-.2-.1-.4-.1-.7-.1H38.7c-.3 0-.6 0-.9-.1-.3.1-.5.3-.6.5s-.2.4-.2.7c0 .2 0 .3.1.5.1.1.2.3.4.4s.4.2.7.2c.3.1.6.1 1 .1s.8 0 1.1-.1.5-.2.7-.3c.2-.1.3-.2.4-.4.2-.4.3-.5.3-.7zm-2.5-5.2c.3 0 .5 0 .7-.1s.4-.2.5-.3c.1-.1.2-.3.3-.5s.1-.4.1-.6c0-.5-.1-.8-.4-1.1-.3-.3-.7-.4-1.2-.4s-1 .1-1.2.4c-.3.3-.4.6-.4 1.1 0 .2 0 .4.1.6s.2.3.3.5c.1.1.3.2.5.3.2 0 .4.1.7.1zM49.3 113.9c.7 0 1.3.1 1.9.3.6.2 1 .5 1.4.9s.7.9.9 1.5.3 1.2.3 2c0 .7-.1 1.4-.3 2s-.5 1.1-.9 1.5-.9.7-1.4 1c-.6.2-1.2.3-1.9.3s-1.3-.1-1.9-.3c-.6-.2-1-.5-1.4-1-.4-.4-.7-.9-.9-1.5s-.3-1.2-.3-2c0-.7.1-1.4.3-2s.5-1.1.9-1.5.9-.7 1.4-.9c.6-.2 1.2-.3 1.9-.3zm0 7.8c.8 0 1.3-.3 1.7-.8s.6-1.3.6-2.3-.2-1.8-.6-2.3c-.4-.5-.9-.8-1.7-.8s-1.4.3-1.7.8c-.4.5-.6 1.3-.6 2.3s.2 1.7.6 2.3c.3.6.9.8 1.7.8zM59.5 113.9c.7 0 1.3.1 1.9.3.6.2 1 .5 1.4.9s.7.9.9 1.5c.2.6.3 1.2.3 2 0 .7-.1 1.4-.3 2s-.5 1.1-.9 1.5-.9.7-1.4 1c-.6.2-1.2.3-1.9.3s-1.3-.1-1.9-.3c-.6-.2-1-.5-1.4-1-.4-.4-.7-.9-.9-1.5s-.3-1.2-.3-2c0-.7.1-1.4.3-2s.5-1.1.9-1.5.9-.7 1.4-.9c.6-.2 1.2-.3 1.9-.3zm0 7.8c.8 0 1.3-.3 1.7-.8.4-.5.6-1.3.6-2.3s-.2-1.8-.6-2.3-.9-.8-1.7-.8-1.4.3-1.7.8c-.4.5-.6 1.3-.6 2.3s.2 1.7.6 2.3c.3.6.9.8 1.7.8zM72.3 123.3c-.3 0-.5-.1-.6-.4l-.2-.9-.6.6c-.2.2-.4.3-.7.4-.2.1-.5.2-.8.3-.3.1-.6.1-.9.1-.5 0-1-.1-1.4-.3-.4-.2-.8-.5-1.1-.9s-.5-.9-.7-1.5-.2-1.3-.2-2 .1-1.3.3-1.9.5-1.1.8-1.5.8-.8 1.2-1c.5-.2 1-.4 1.6-.4.5 0 1 .1 1.3.2.4.2.7.4 1 .7v-4.9h2.2v13.4h-1.2zm-3-1.6c.5 0 .9-.1 1.2-.3.3-.2.6-.5.9-.8v-4.1c-.3-.3-.5-.5-.8-.6s-.6-.2-1-.2c-.3 0-.6.1-.9.2s-.5.3-.7.6c-.2.3-.3.6-.4 1-.1.4-.2.9-.2 1.4s0 1 .1 1.4c.1.4.2.7.4.9.2.2.4.4.6.5.3-.1.5 0 .8 0zM79.3 125.8c-.1.2-.2.3-.3.4s-.3.1-.5.1h-1.7l1.7-3.7-3.7-8.5h1.9c.2 0 .3 0 .4.1.1.1.2.2.2.3l2 4.8c.1.2.1.3.2.5 0 .2.1.3.1.5 0-.2.1-.3.2-.5s.1-.3.2-.5l1.9-4.8c0-.1.1-.2.2-.3.1-.1.2-.1.4-.1h1.8l-5 11.7zM85.6 123.3v-13.4h2.2v5.3c.4-.4.8-.7 1.2-.9.5-.2 1-.3 1.6-.3.5 0 1 .1 1.4.3.4.2.8.5 1.1.9.3.4.5.9.7 1.5s.2 1.2.2 2c0 .7-.1 1.3-.3 1.9-.2.6-.5 1.1-.8 1.5s-.8.8-1.2 1c-.5.2-1 .4-1.6.4-.3 0-.5 0-.8-.1-.2-.1-.4-.1-.6-.2s-.4-.2-.5-.4c-.2-.1-.3-.3-.5-.5l-.1.6c0 .2-.1.3-.2.3-.1.1-.2.1-.4.1h-1.4zm4.3-7.6c-.5 0-.9.1-1.2.3-.3.2-.6.5-.9.8v4.1c.3.3.5.5.8.7.3.1.6.2 1 .2.3 0 .6-.1.9-.2s.5-.3.7-.6c.2-.3.3-.6.4-1 .1-.4.2-.9.2-1.4s0-1-.1-1.4c-.1-.4-.2-.7-.4-.9-.2-.2-.4-.4-.6-.5-.2-.1-.5-.1-.8-.1zM103.1 123.3h-1c-.2 0-.4 0-.5-.1-.1-.1-.2-.2-.3-.4l-.2-.6c-.2.2-.5.4-.7.6s-.5.3-.7.4-.5.2-.8.2c-.3.1-.6.1-.9.1-.4 0-.7-.1-1.1-.2-.3-.1-.6-.3-.8-.5s-.4-.5-.6-.8c-.1-.3-.2-.7-.2-1.1 0-.3.1-.7.3-1s.5-.6.9-.9c.4-.3 1-.5 1.7-.7s1.6-.3 2.6-.3v-.5c0-.6-.1-1.1-.4-1.4s-.6-.4-1.1-.4c-.4 0-.7 0-.9.1l-.6.3c-.2.1-.3.2-.5.3-.1.1-.3.1-.5.1-.1 0-.3 0-.4-.1l-.3-.3-.4-.7c1.1-1 2.3-1.5 3.8-1.5.5 0 1 .1 1.4.3.4.2.8.4 1.1.7.3.3.5.7.7 1.1s.2.9.2 1.4v5.9h.2zm-4.3-1.4c.2 0 .4 0 .6-.1.2 0 .4-.1.5-.2.2-.1.3-.2.5-.3.2-.1.3-.3.5-.4v-1.5c-.6 0-1.2 0-1.6.1-.4.1-.8.2-1 .3-.3.1-.5.3-.6.4-.1.2-.2.4-.2.6 0 .4.1.7.3.8.3.2.6.3 1 .3zM108.5 113.9c.4 0 .8 0 1.1.1s.7.2 1 .4h2.7v.8c0 .1 0 .2-.1.3-.1.1-.2.1-.4.2l-.8.2c.1.2.1.3.1.5v.5c0 .5-.1.9-.3 1.2-.2.4-.4.7-.8.9-.3.3-.7.5-1.1.6-.4.1-.9.2-1.4.2-.3 0-.7 0-1-.1-.3.2-.4.4-.4.6s.1.3.3.4c.2.1.4.1.7.2.3 0 .6.1.9.1h1.1c.4 0 .7.1 1.1.2.4.1.7.2.9.4.3.2.5.4.7.7.2.3.3.6.3 1.1 0 .4-.1.8-.3 1.2-.2.4-.5.7-.9 1-.4.3-.8.5-1.4.7-.6.2-1.2.3-1.9.3s-1.3-.1-1.8-.2-.9-.3-1.3-.5c-.3-.2-.6-.5-.8-.8-.2-.3-.3-.6-.3-.9 0-.4.1-.8.4-1.1.3-.3.6-.5 1.1-.7-.2-.1-.4-.3-.5-.5-.1-.2-.2-.5-.2-.8 0-.1 0-.3.1-.4 0-.1.1-.3.2-.4.1-.1.2-.3.4-.4.1-.1.3-.2.5-.3-.5-.3-.8-.6-1.1-1-.3-.4-.4-.9-.4-1.5 0-.5.1-.9.3-1.2.2-.4.4-.7.8-.9.3-.3.7-.5 1.2-.6.2-.4.7-.5 1.3-.5zm2.4 9.8c0-.2-.1-.3-.2-.4-.1-.1-.3-.2-.4-.3-.2-.1-.4-.1-.7-.1H107.9c-.3 0-.6 0-.9-.1-.3.1-.5.3-.6.5-.2.2-.2.4-.2.7 0 .2 0 .3.1.5.1.1.2.3.4.4.2.1.4.2.7.2.3.1.6.1 1 .1s.8 0 1.1-.1c.3-.1.5-.2.7-.3.2-.1.3-.2.4-.4.2-.4.3-.5.3-.7zm-2.4-5.2c.3 0 .5 0 .7-.1s.4-.2.5-.3c.1-.1.2-.3.3-.5s.1-.4.1-.6c0-.5-.1-.8-.4-1.1-.3-.3-.7-.4-1.2-.4s-1 .1-1.2.4c-.3.3-.4.6-.4 1.1 0 .2 0 .4.1.6.1.2.2.3.3.5.1.1.3.2.5.3.1 0 .4.1.7.1z"/></g></svg>