<?xml version="1.0" encoding="utf-8"?>
<!-- Generator: Adobe Illustrator 21.0.2, SVG Export Plug-In . SVG Version: 6.00 Build 0)  -->
<svg version="1.1" id="Layer_1" xmlns="http://www.w3.org/2000/svg" xmlns:xlink="http://www.w3.org/1999/xlink" x="0px" y="0px"
	 viewBox="0 0 172.9 34" style="enable-background:new 0 0 172.9 34;" xml:space="preserve">
<style type="text/css">
	.st0{fill:#1A171B;}
</style>
<path id="XMLID_25_" class="st0" d="M29.8,12c-1-1.2-2.6-1.9-4.3-1.9c-3.4,0-6.7,2.6-6.7,7c0,4.4,3.4,7,6.6,7c1.8,0,3.4-0.8,4.4-2
	v1.8h3.1V10.4h-3.1V12z M25.9,21.3c-2.3,0-4.1-1.8-4.1-4.2c0-2.3,1.8-4.1,4.1-4.1c2.3,0,4,1.9,4,4.1C29.9,19.4,28.2,21.3,25.9,21.3z
	"/>
<path id="XMLID_22_" class="st0" d="M50.7,12c-1-1.2-2.6-1.9-4.3-1.9c-3.4,0-6.7,2.6-6.7,7c0,4.4,3.4,7,6.6,7c1.8,0,3.4-0.8,4.4-2
	v1.8h3.1V10.4h-3.1V12z M46.8,21.3c-2.3,0-4.1-1.8-4.1-4.2c0-2.3,1.8-4.1,4.1-4.1c2.3,0,4,1.9,4,4.1C50.9,19.4,49.1,21.3,46.8,21.3z
	"/>
<polygon id="XMLID_21_" class="st0" points="75.8,19.5 72.1,10.4 68.8,10.4 74.3,23.2 71.9,29 75.1,29 82.6,10.4 79.3,10.4 "/>
<polygon id="XMLID_20_" class="st0" points="68.4,10.4 64.7,10.4 61.7,14.7 58.6,10.4 54.8,10.4 59.7,17 54.7,23.9 58.5,23.9 
	61.7,19.4 64.9,23.9 68.7,23.9 63.6,17.1 "/>
<rect id="XMLID_19_" x="35" y="6.9" class="st0" width="3.1" height="17"/>
<path id="XMLID_18_" class="st0" d="M8.7,17.5h5.4c-0.6,2.2-2.3,3.6-4.8,3.6c-3.3,0-5.6-2.5-5.6-5.6c0-3.1,2.4-5.6,5.5-5.6
	c2.2,0,3.8,1,4.8,2.9l2.8-1.7c-1.4-2.5-4.2-4.3-7.6-4.3c-5,0-8.6,3.8-8.6,8.6c0,4.6,3.5,8.6,8.7,8.6c5,0,8.2-3.9,8.2-8.4v-1.2H8.7
	V17.5z"/>
<path id="XMLID_17_" class="st0" d="M94.1,14c-1.8-0.6-3.4-1-3.4-2.4c0-1.1,0.8-1.9,2.3-1.9c1.3,0,2.3,0.6,3,1.6l2.6-2
	c-1.4-1.4-2.9-2.4-5.6-2.4c-3.2,0-5.6,2.1-5.6,4.8c0,3.2,2.5,4.1,4.8,4.8c1.8,0.6,3.5,1,3.5,2.4c0,1.2-0.9,2.3-2.6,2.3
	c-1.5,0-2.8-0.8-3.7-2.3l-2.8,2.3c1.5,1.7,3.5,3,6.5,3c3.7,0,5.8-2.6,5.8-5.2C98.9,15.7,96.4,14.7,94.1,14z"/>
<path id="XMLID_12_" class="st0" d="M144.8,14c-1.8-0.6-3.4-1-3.4-2.4c0-1.1,0.8-1.9,2.3-1.9c1.3,0,2.3,0.6,3,1.6l2.6-2
	c-1.4-1.4-2.9-2.4-5.6-2.4c-3.2,0-5.6,2.1-5.6,4.8c0,3.2,2.5,4.1,4.8,4.8c1.8,0.6,3.5,1,3.5,2.4c0,1.2-0.9,2.3-2.6,2.3
	c-1.5,0-2.8-0.8-3.7-2.3l-2.8,2.3c1.5,1.7,3.5,3,6.5,3c3.7,0,5.8-2.6,5.8-5.2C149.6,15.7,147.1,14.7,144.8,14z"/>
<polygon id="XMLID_7_" class="st0" points="169.5,14.2 169.5,11.3 166.9,11.3 166.9,14.2 163.9,14.2 163.9,16.9 166.9,16.9 
	166.9,19.8 169.5,19.8 169.5,16.9 172.4,16.9 172.4,14.2 "/>
<rect id="XMLID_6_" x="124" y="5.1" class="st0" width="1.3" height="21.5"/>
<path id="XMLID_9_" class="st0" d="M106.3,18.1c-0.3,0.1-0.6,0.1-1,0.1c-2.9,0-5.4-2.3-5.4-5.7c0-3.4,2.6-5.7,6-5.7
	c3.5,0,6,2.5,6,5.7c0,1.6-0.5,3.2-1.3,4.3l-4.3,7h-3.7L106.3,18.1z M108.9,12.6c0-1.6-1.3-3-2.9-3c-1.6,0-2.9,1.4-2.9,3
	c0,1.6,1.4,2.9,2.9,2.9C107.6,15.6,108.9,14.3,108.9,12.6z"/>
<path id="XMLID_14_" class="st0" d="M157,18.1c-0.3,0.1-0.6,0.1-1,0.1c-2.9,0-5.4-2.3-5.4-5.7c0-3.4,2.6-5.7,6-5.7
	c3.5,0,6,2.5,6,5.7c0,1.6-0.5,3.2-1.3,4.3l-4.3,7h-3.7L157,18.1z M159.5,12.6c0-1.6-1.3-3-2.9-3c-1.6,0-2.9,1.4-2.9,3
	c0,1.6,1.4,2.9,2.9,2.9C158.3,15.6,159.5,14.3,159.5,12.6z"/>
</svg>
