<?xml version="1.0" encoding="utf-8"?>
<!-- Generator: Adobe Illustrator 21.0.2, SVG Export Plug-In . SVG Version: 6.00 Build 0)  -->
<svg version="1.1" id="Layer_1" xmlns="http://www.w3.org/2000/svg" xmlns:xlink="http://www.w3.org/1999/xlink" x="0px" y="0px"
	 viewBox="0 0 320 32" style="enable-background:new 0 0 320 32;" xml:space="preserve">
<g>
	<path d="M13.5,8H8.8V4.8h12.6V8h-4.7v14.4h-3.3V8z"/>
	<path d="M23,4.6h3.2V10c1-1.2,2.4-2,4.2-2c3.5,0,5.6,2.3,5.6,6v8.3h-3.3v-8c0-2.2-1.1-3.6-3.2-3.6c-1.8,0-3.3,1.4-3.3,3.8v7.7H23
		V4.6z"/>
	<path d="M37.4,15.4c0-4.1,3.2-7.3,7.3-7.3c4.2,0,7.2,3.1,7.2,7.2v1.2H40.5c0.4,2,2,3.3,4.3,3.3c1.8,0,3.2-1,3.9-2.5l2.7,1.5
		c-1.2,2.3-3.4,3.8-6.6,3.8C40.4,22.6,37.4,19.4,37.4,15.4z M40.7,13.8h8c-0.5-1.9-1.9-2.9-3.9-2.9C42.8,10.9,41.2,12.1,40.7,13.8z"
		/>
	<path d="M58.8,15.4c0-4.1,3.2-7.3,7.3-7.3c3.1,0,5.6,1.8,6.7,4.3l-2.9,1.2c-0.6-1.5-2.1-2.5-3.8-2.5c-2.4,0-4.2,1.9-4.2,4.3
		c0,2.3,1.8,4.2,4.2,4.2c1.8,0,3.2-1.1,3.8-2.6l2.9,1.2c-1.1,2.6-3.5,4.4-6.7,4.4C62,22.6,58.8,19.4,58.8,15.4z"/>
	<path d="M73.5,15.4c0-4.7,3.4-7.3,7-7.3c1.8,0,3.5,0.8,4.5,2V8.3h3.2v14H85v-1.8c-1,1.3-2.7,2.1-4.6,2.1
		C77,22.6,73.5,19.9,73.5,15.4z M85.1,15.3c0-2.4-1.8-4.3-4.2-4.3s-4.2,1.9-4.2,4.3c0,2.4,1.8,4.4,4.2,4.4S85.1,17.7,85.1,15.3z"/>
	<path d="M90.2,8.3h3.2V10c0.9-1.2,2.3-1.9,4-1.9c2.2,0,3.7,0.9,4.6,2.4c1-1.5,2.6-2.4,4.6-2.4c3.8,0,5.7,2.3,5.7,5.9v8.4H109v-8.2
		c0-2-1.1-3.3-3-3.3c-1.8,0-3.1,1.2-3.1,3.7v7.8h-3.3v-8.3c0-2-1-3.2-3-3.2c-1.8,0-3.2,1.2-3.2,3.7v7.8h-3.2V8.3z"/>
	<path d="M113.7,15.4c0-4.1,3.2-7.3,7.3-7.3c4.2,0,7.2,3.1,7.2,7.2v1.2h-11.4c0.4,2,2,3.3,4.3,3.3c1.8,0,3.2-1,3.9-2.5l2.7,1.5
		c-1.2,2.3-3.4,3.8-6.6,3.8C116.7,22.6,113.7,19.4,113.7,15.4z M116.9,13.8h8c-0.5-1.9-1.9-2.9-3.9-2.9
		C119,10.9,117.5,12.1,116.9,13.8z"/>
	<path d="M129.6,8.3h3.2v2.1c0.6-1.4,1.8-2.1,3.6-2.1c1,0,1.8,0.2,2.5,0.6l-1.2,3.1c-0.5-0.3-1-0.6-1.9-0.6c-1.9,0-2.9,1-2.9,3.4
		v7.5h-3.2V8.3z"/>
	<path d="M139,15.4c0-4.7,3.4-7.3,7-7.3c1.8,0,3.5,0.8,4.5,2V8.3h3.2v14h-3.2v-1.8c-1,1.3-2.7,2.1-4.6,2.1
		C142.6,22.6,139,19.9,139,15.4z M150.7,15.3c0-2.4-1.8-4.3-4.2-4.3s-4.2,1.9-4.2,4.3c0,2.4,1.8,4.4,4.2,4.4S150.7,17.7,150.7,15.3z
		"/>
	<path d="M157.1,18.7c1.2,0,1.9,0.8,1.9,2c0,1.2-0.7,1.9-2,1.9c-1.2,0-1.9-0.8-1.9-1.9C155.2,19.5,155.9,18.7,157.1,18.7z"/>
	<path d="M166.5,22.4V4.8h5.6c4.2,0,6.6,2.5,6.6,6.1c0,2.1-1.1,4.1-3,5.1l3.5,6.3h-3.7l-2.8-5.4h-2.9v5.4H166.5z M171.8,14
		c2.7,0,3.6-1.5,3.6-3.2c0-1.8-1.1-2.9-3.6-2.9h-2.1V14H171.8z"/>
	<path d="M178.9,15.4c0-4.1,3.2-7.3,7.3-7.3c4.2,0,7.2,3.1,7.2,7.2v1.2H182c0.4,2,2,3.3,4.3,3.3c1.8,0,3.2-1,3.9-2.5l2.7,1.5
		c-1.2,2.3-3.4,3.8-6.6,3.8C181.9,22.6,178.9,19.4,178.9,15.4z M182.2,13.8h8c-0.5-1.9-1.9-2.9-3.9-2.9
		C184.3,10.9,182.8,12.1,182.2,13.8z"/>
	<path d="M196.5,2.8c1.3,0,2,0.8,2,2c0,1.2-0.8,2-2,2c-1.3,0-2-0.8-2-2C194.5,3.7,195.3,2.8,196.5,2.8z M194.9,8.3h3.3v14h-3.3V8.3z
		"/>
	<path d="M200,8.3h3.2V10c0.9-1.2,2.3-1.9,4-1.9c2.2,0,3.7,0.9,4.6,2.4c1-1.5,2.6-2.4,4.6-2.4c3.8,0,5.7,2.3,5.7,5.9v8.4h-3.3v-8.2
		c0-2-1.1-3.3-3-3.3c-1.8,0-3.1,1.2-3.1,3.7v7.8h-3.3v-8.3c0-2-1-3.2-3-3.2c-1.8,0-3.2,1.2-3.2,3.7v7.8H200V8.3z"/>
	<path d="M223.5,15.4c0-4.7,3.4-7.3,7-7.3c1.8,0,3.5,0.8,4.5,2V8.3h3.2v14H235v-1.8c-1,1.3-2.7,2.1-4.6,2.1
		C227,22.6,223.5,19.9,223.5,15.4z M235.1,15.3c0-2.4-1.8-4.3-4.2-4.3s-4.2,1.9-4.2,4.3c0,2.4,1.8,4.4,4.2,4.4
		S235.1,17.7,235.1,15.3z"/>
	<path d="M251.1,20.5c-1,1.3-2.7,2.2-4.6,2.2c-3.4,0-6.9-2.7-6.9-7.3c0-4.7,3.4-7.3,7-7.3c1.8,0,3.5,0.8,4.5,2.1V8.3h3.2V22
		c0,3.9-2.5,7.2-7.2,7.2c-3.6,0-5.9-1.7-7.2-4l2.9-1.8c1,1.9,2.1,2.8,4.4,2.8c2.4,0,4-1.9,4-4.1V20.5z M251.2,15.3
		c0-2.4-1.8-4.3-4.2-4.3s-4.2,1.9-4.2,4.3c0,2.4,1.8,4.4,4.2,4.4S251.2,17.7,251.2,15.3z"/>
	<path d="M257.7,2.8c1.3,0,2,0.8,2,2c0,1.2-0.8,2-2,2c-1.3,0-2-0.8-2-2C255.7,3.7,256.5,2.8,257.7,2.8z M256.1,8.3h3.3v14h-3.3V8.3z
		"/>
	<path d="M261.2,8.3h3.2V10c0.9-1.2,2.4-2,4.2-2c3.5,0,5.6,2.3,5.6,6v8.3h-3.3v-8c0-2.2-1.1-3.5-3.2-3.5c-1.8,0-3.3,1.4-3.3,3.8v7.7
		h-3.2V8.3z"/>
	<path d="M275.6,15.4c0-4.1,3.2-7.3,7.3-7.3c4.2,0,7.2,3.1,7.2,7.2v1.2h-11.4c0.4,2,2,3.3,4.3,3.3c1.8,0,3.2-1,3.9-2.5l2.7,1.5
		c-1.2,2.3-3.4,3.8-6.6,3.8C278.6,22.6,275.6,19.4,275.6,15.4z M278.9,13.8h8c-0.5-1.9-1.9-2.9-3.9-2.9
		C281,10.9,279.5,12.1,278.9,13.8z"/>
	<path d="M291.1,15.4c0-4.7,3.4-7.3,7-7.3c1.8,0,3.5,0.7,4.5,1.9V4.6h3.3v17.8h-3.2v-1.8c-1,1.3-2.7,2.1-4.6,2.1
		C294.7,22.6,291.1,19.9,291.1,15.4z M302.8,15.3c0-2.4-1.8-4.3-4.2-4.3s-4.2,1.9-4.2,4.3c0,2.4,1.8,4.4,4.2,4.4
		S302.8,17.7,302.8,15.3z"/>
	<path d="M309.3,18.7c1.2,0,1.9,0.8,1.9,2c0,1.2-0.7,1.9-2,1.9c-1.2,0-1.9-0.8-1.9-1.9C307.3,19.5,308.1,18.7,309.3,18.7z"/>
</g>
</svg>
