<?xml version="1.0" encoding="utf-8"?>
<!-- Generator: Adobe Illustrator 21.0.2, SVG Export Plug-In . SVG Version: 6.00 Build 0)  -->
<svg version="1.1" id="Layer_1" xmlns="http://www.w3.org/2000/svg" xmlns:xlink="http://www.w3.org/1999/xlink" x="0px" y="0px"
	 viewBox="0 0 150 34" style="enable-background:new 0 0 150 34;" xml:space="preserve">
<style type="text/css">
	.st0{fill:#1A171B;}
</style>
<path class="st0" d="M6.3,11.8c-0.1-0.4-0.1-0.9,0-1.1C6.4,10,6.9,9.2,8.2,9.2c1.2,0,2,0.8,2,1.9c0,0.4,0,1.3,0,1.3h5.3V11
	c0-4.6-4.2-5.4-7.2-5.4c-3.8,0-6.9,1.3-7.4,4.7c-0.2,1-0.2,1.8,0,2.9c0.9,4.3,8.5,5.6,9.6,8.4c0.2,0.5,0.1,1.2,0,1.6
	c-0.2,0.7-0.7,1.4-2.1,1.4c-1.3,0-2.1-0.8-2.1-1.9l0-2H0.7v1.6c0,4.8,3.7,6.2,7.7,6.2c3.8,0,7-1.3,7.5-4.9c0.3-1.8,0.1-3,0-3.5
	C15,15.6,6.9,14.3,6.3,11.8z M75.4,11.8c-0.1-0.4-0.1-0.9,0-1.1c0.2-0.7,0.6-1.4,1.9-1.4c1.2,0,1.9,0.8,1.9,1.9c0,0.4,0,1.3,0,1.3
	h5.2V11c0-4.6-4.1-5.3-7.1-5.3c-3.7,0-6.8,1.2-7.4,4.7c-0.1,0.9-0.2,1.8,0.1,2.8c0.9,4.3,8.4,5.5,9.5,8.3c0.2,0.5,0.1,1.2,0,1.6
	c-0.2,0.7-0.6,1.4-2,1.4c-1.3,0-2.1-0.8-2.1-1.9l0-2h-5.6v1.6c0,4.7,3.7,6.1,7.6,6.1c3.8,0,6.9-1.3,7.4-4.8c0.2-1.8,0.1-3,0-3.4
	C84,15.6,76,14.3,75.4,11.8z M123.7,23.4l-5-17.1h-7.9v21h5.2l-0.3-17.7l5.4,17.7h7.6v-21h-5.3L123.7,23.4z M23.4,6.3l-3.9,21.3h5.7
	l3-19.7l2.9,19.7h5.7L32.9,6.3H23.4z M55.5,6.3l-2.7,16.6L50.2,6.3h-8.7L41,27.6h5.3l0.1-19.7l3.7,19.7h5.4l3.7-19.7l0.1,19.7h5.3
	L64.2,6.3H55.5z M104.9,6.3h-5.4V22c0,0.3,0,0.6,0,0.8c-0.1,0.5-0.6,1.5-2,1.5c-1.5,0-1.9-1-2-1.5c-0.1-0.2-0.1-0.5-0.1-0.8V6.3H90
	v15.2c0,0.4,0,1.2,0,1.4c0.4,4,3.5,5.3,7.4,5.3c3.9,0,7-1.3,7.4-5.3c0-0.2,0.1-1,0-1.4V6.3z M141.8,15.6v3.1h2.2v3.1
	c0,0.3,0,0.6-0.1,0.8c-0.1,0.6-0.6,1.6-2.2,1.6c-1.5,0-2.1-1-2.2-1.6c0-0.2-0.1-0.5-0.1-0.8v-9.7c0-0.3,0-0.7,0.1-1
	c0.1-0.5,0.6-1.5,2.1-1.5c1.6,0,2,1.1,2.1,1.5c0.1,0.3,0.1,0.8,0.1,0.8v1.2h5.4v-0.7c0,0,0-0.7,0-1.4c-0.4-4-3.7-5.2-7.5-5.2
	c-3.8,0-7,1.3-7.5,5.2c0,0.4-0.1,1-0.1,1.4v8.9c0,0.4,0,0.7,0.1,1.4c0.3,3.9,3.7,5.3,7.5,5.3c3.8,0,7.1-1.4,7.5-5.3
	c0.1-0.7,0.1-1,0.1-1.4v-5.7H141.8z"/>
</svg>
